<svg xmlns="http://www.w3.org/2000/svg" width="159" height="29" viewBox="0 0 159 29">
    <path fill="#692969" fill-rule="evenodd" d="M158.603 12.025c-.27.042-1.14.042-2.064.042h-2.824c-.22 0-.327 0-.272-.29.214-1.027.922-2.716 1.52-3.744.216-.245-.161-.33-.545-.12-.65.366-2.012 1.229-2.445 1.683-.325.37-.707.781-1.248 2.058-.108.371-.273.45-.545.496-.27.037-.65.121-1.141.204-.707.164-2.119.657-2.444.905-.436.33-.38.537.11.537h2.717c.543 0 .543.08.43.408-.361 1.342-.778 2.983-1.171 4.603-.702.719-1.532 1.354-2.275 2.003a85.685 85.685 0 0 1-3.526 2.931c-.002 0-.003 0-.003.007l-.562.418c-1.234.822-2.925 1.64-4.143 1.64-2.01 0-3.207-1.192-3.152-4.403 0-.453.055-.822.055-1.108.053-.455.163-.496.379-.579 1.795-.575 3.806-1.235 5.652-2.139 1.578-.738 3.59-1.973 3.643-3.702 0-1.52-1.25-2.466-2.502-2.466-1.248 0-4.24 1.355-5.867 2.55-1.196.818-4.504 3.776-4.566 9.639 0 0-.098.296-1.22 1.374-.733.706-2.046 1.536-2.046 1.536-.06.012-.1.025-.158.03-.037 0-.072.004-.109.004-1.467 0-2.716-1.765-3.422-2.794-1.035-1.521-1.846-3.248-2.283-3.908a6.342 6.342 0 0 0-.709-1.11c-.216-.25-.216-.45.438-.78 1.303-.827 4.182-2.758 4.943-3.334.655-.533 1.469-1.274 1.469-1.931 0-.498-.273-1.317-1.198-1.317-.379 0-.651.083-1.14.368-.546.247-1.03.618-1.467.949-.327.245-.436.532-.382.944.055.413-.27 1.604-1.576 2.714a15.352 15.352 0 0 1-3.856 2.428c-.602.207-.655.122-.544-.45.924-4.117 3.044-14.565 3.478-15.964l-4.185.658c.707-.08.76.205.49 1.891-.705 3.994-2.609 13.416-3.803 17.856-.327 1.315-.763 2.922-1.196 4.772-.165.577-.165.902.213.902.33 0 1.687-.657 2.014-.86.38-.285.761-.661 1.03-1.402.434-1.272.818-2.837 1.037-3.785.161-.735.324-1.518.487-2.26.107-.536.164-.66.489-.615.541.08.977.452 1.686 2.012.758 1.566 1.794 3.538 2.606 4.77 1.143 1.605 2.285 2.14 3.313 2.14.824 0 1.957-.325 3.2-1.332a12.72 12.72 0 0 0 2.513-2.192c.333 1.794 1.412 3.279 3.528 3.279 2.401 0 6.336-2.325 8.292-4.075a91.526 91.526 0 0 0 3.193-2.662c.458-.397.934-.788 1.4-1.19-.341 1.479-.64 2.866-.82 3.9-.436 2.216-.272 4.11.871 4.11.921 0 4.184-2.342 6.468-4.773.158-.164-.166-.452-.44-.285-.76.574-2.499 1.889-3.26 1.889-.487 0-.541-.906-.219-3 .274-1.768 1.034-5.554 1.85-7.982.107-.248.218-.327.49-.327.436 0 1.03-.044 1.523-.083.377 0 1.25-.168 1.79-.33 1.034-.328 1.901-.904 2.175-1.071.38-.207.273-.371-.164-.287m-23.15 6.047c.328-1.563 1.09-2.92 1.684-3.456.6-.617 1.63-1.274 2.503-1.274 1.359 0 1.954 1.03 1.902 1.972 0 .454-.327 1.03-.977 1.482-1.035.66-2.502 1.276-4.784 1.73-.38.083-.38-.125-.327-.454M21.599 1.914C20.76 1.229 18.98.8 16.883.8c-2.377 0-4.998.63-7.515 2.322C6.711 4.869 5.661 6.83 5.701 9.156c.045 2.649 2.129 4.507 5.623 6.092 2.657 1.166 6.067 2.587 6.067 5.974s-2.363 5.353-6.766 5.353c-3.285 0-6.213-1.386-7.06-3.439-.264-.641-.488-1.271-.418-1.641.14-.317-.42-.371-.77 0-.278.37-1.048 1.212-1.605 1.852-.492.42-.772.847-.772 1.323 0 .795.63 1.692 1.679 2.382 1.258.897 3.901 1.55 6.558 1.55 2.513 0 4.911-.778 7.288-2 3.006-1.581 5.79-3.742 5.748-6.867-.046-3.292-3.704-5.537-6.36-6.75-3.075-1.378-5.843-2.941-5.843-5.956 0-2.806 2.395-4.466 5.19-4.424 3.645.05 5.312 1.427 4.893 3.33-.14.692.629.795 1.047.32.699-.74 1.05-1.057 1.61-1.64.419-.427.627-.792.627-1.163 0-.426-.208-1.008-.838-1.538m90.722 9.495c-.925 0-1.74.822-2.176 1.153a31.17 31.17 0 0 0-4.508 5.22c-.22.33-.433.33-.38 0 .38-1.974.708-3.493.816-4.607.106-.657.106-1.766-.708-1.766l-3.424 3.905c.816-.287.922.123.706 1.605a61.934 61.934 0 0 1-.306 1.833c-.012.011-.024.013-.035.024a523.142 523.142 0 0 1-6.116 5.042.07.07 0 0 0-.007.012c-1.247.926-3.239 1.976-4.622 1.976-2.009 0-3.205-1.192-3.149-4.403 0-.453.054-.822.054-1.108.053-.455.16-.496.377-.579 1.794-.575 3.806-1.235 5.655-2.139 1.573-.738 3.585-1.973 3.639-3.702 0-1.52-1.247-2.466-2.495-2.466-1.255 0-4.242 1.355-5.874 2.55-.306.211-.747.556-1.234 1.06 0 0-.476.391-1.624.596-1.228.226-1.879-.055-2.185-.11-.56-.17-1.073-.54-1.085-.581.024-.106.076-.386.076-.386s.128-.675.128-.993c.056-1.19-.706-2.136-1.791-2.136-1.251 0-2.01.986-2.175 1.561-.106.33.057.451.22.618.325.287.704.82.704 2.016 0 2.387-1.902 5.47-5.325 8.518-.49.492-.651.492-.651-.125 0-1.855-.055-4.114-.164-6.5-.163-3.088-.761-6.088-2.39-6.088l-1.958 2.714c.714 0 1.045 1.128 1.351 3.431-2.573 2.535-5.426 4.676-8.332 6.807-.435.234-.774.374-.952.374-.434 0-.38-1.316-.053-3.209 1.086-5.966 2.444-12.918 4.455-19.623l-4.402.74c.706.041 1.033.124.49 2.592-.336 1.554-.676 3.082-1.01 4.593-.19.33-1.33 1.826-1.33 1.826s-.924 1.04-1.516 1.546c-.863.733-1.667 1.101-1.828 1.187-.534.296-1.642.295-1.642.295a3.637 3.637 0 0 1-.312-.056c-.414-1.7-1.558-3.217-4.101-3.217-1.414 0-3.424.945-5.27 2.058-4.022 2.507-5.326 6.62-5.381 9.541 0 .256.026.67.049.907l-.458.543-.82.755a10.602 10.602 0 0 1-1.656 1.201c-.154.067-.291.11-.405.125-.044 0-.087.003-.133.003-1.465 0-2.718-1.765-3.422-2.794-1.033-1.521-1.85-3.248-2.283-3.908-.219-.451-.49-.823-.706-1.11-.22-.25-.22-.45.432-.78 1.306-.827 4.187-2.758 4.948-3.334.65-.533 1.467-1.274 1.467-1.931 0-.498-.273-1.317-1.197-1.317-.38 0-.652.083-1.14.368-.544.247-1.034.618-1.466.949-.329.245-.436.532-.382.944.053.413-.273 1.604-1.577 2.714-1.252 1.07-2.608 1.891-3.858 2.428-.598.207-.65.122-.544-.45.925-4.117 3.043-14.565 3.477-15.964l-4.183.658c.706-.08.76.205.49 1.891-.707 3.994-2.609 13.416-3.805 17.856-.326 1.315-.762 2.922-1.194 4.772-.166.577-.166.902.217.902.326 0 1.685-.657 2.009-.86.38-.285.76-.661 1.033-1.402.434-1.272.814-2.837 1.033-3.785.162-.735.325-1.518.489-2.26.11-.536.163-.66.488-.615.545.08.979.452 1.687 2.012.759 1.566 1.792 3.538 2.606 4.77 1.143 1.605 2.283 2.14 3.316 2.14.778 0 1.836-.292 3-1.178a12.66 12.66 0 0 0 2.765-2.228c.595 2.013 2.115 3.161 4.124 3.161 1.306 0 3.533-.9 5.271-2.017 3.532-2.3 5.273-6.621 5.273-9.665a7.748 7.748 0 0 0-.024-.815c2.165.178 4.316-1.502 5.909-3.404-.875 3.935-1.73 7.773-2.516 11.662-.546 2.513-.219 4.322.542 4.322.414 0 2.49-1.32 4.762-3.387 2.672-1.966 5.299-3.94 7.696-6.236.284 2.997.085 6.727-.067 8.847 0 .403.056.776.488.776.272 0 .869-.45 1.523-1.027.544-.407 1.032-.908 1.793-1.732 3.625-3.831 6.556-7.108 7.75-9.707 1.189.777 2.511.944 4.029.704-1.084 1.594-2.078 3.933-2.108 7.114 0 2.306 1.033 4.565 3.64 4.565 2.32 0 6.061-2.164 8.076-3.886a578.354 578.354 0 0 0 5.185-4.283c-.42 2.166-.983 4.624-1.74 7.512-.162.577-.106.902.218.902.379 0 1.685-.657 2.012-.902.324-.243.76-.62.978-1.36.38-1.272.652-2.837.868-3.785.219-.902.545-1.93 1.197-3.081 1.793-2.882 3.476-4.362 4.401-4.362.38 0 .65.123.815.287.164.124.382.37.65.37.273 0 .762-.37 1.468-1.194.546-.613 1.035-1.354 1.035-1.645.054-.37-.274-1.355-1.685-1.355m-23.478 6.663c.327-1.563 1.087-2.92 1.686-3.456.601-.617 1.632-1.274 2.5-1.274 1.358 0 1.959 1.03 1.906 1.972 0 .454-.332 1.03-.982 1.482-1.033.66-2.5 1.276-4.783 1.73-.38.083-.38-.125-.327-.454m-36.787-.702c0 2.43-.599 6.336-2.5 8.066-.597.582-1.574.944-2.335.944-1.85 0-3.316-1.19-3.316-4.481.055-3.87 1.25-6.503 2.555-7.695.76-.698 1.412-.987 2.392-.987 2.662 0 3.258 2.14 3.204 4.153"/>
</svg>
