<?xml version="1.0" encoding="utf-8"?>
<!-- Generator: Adobe Illustrator 21.1.0, SVG Export Plug-In . SVG Version: 6.00 Build 0)  -->
<svg version="1.1" id="Layer_1" xmlns="http://www.w3.org/2000/svg" xmlns:xlink="http://www.w3.org/1999/xlink" x="0px" y="0px"
	 viewBox="0 0 100 100" style="enable-background:new 0 0 100 100;" xml:space="preserve">
<style type="text/css">
	.st0{fill:#ffffff;}
</style>
<g>
	<path class="st0" d="M87.2,32.8c0,1.3-0.4,2.3-1.3,3.2L51.6,70.4l-6.4,6.4c-0.9,0.9-2,1.3-3.2,1.3c-1.3,0-2.3-0.4-3.2-1.3l-6.4-6.4
		L15.1,53.2c-0.9-0.9-1.3-2-1.3-3.2c0-1.3,0.4-2.3,1.3-3.2l6.4-6.4c0.9-0.9,2-1.3,3.2-1.3c1.3,0,2.3,0.4,3.2,1.3l13.9,14L73,23.2
		c0.9-0.9,2-1.3,3.2-1.3c1.3,0,2.3,0.4,3.2,1.3l6.4,6.4C86.8,30.5,87.2,31.6,87.2,32.8z"/>
</g>
</svg>
