<svg xmlns="http://www.w3.org/2000/svg" width="18" height="18" viewBox="0 0 18 18">
    <path fill="#692969" fill-rule="nonzero" d="M9 0C4.034 0 0 4.034 0 9c0 4.984 4.034 9 9 9s9-4.016 9-9c0-4.966-4.034-9-9-9zm-.639 5.02a9.215 9.215 0 0 1-2.501-.493c.62-1.26 1.497-2.3 2.501-2.957v3.45zm0 1.278V8.38H4.874c.055-.949.238-1.844.511-2.665.913.329 1.935.53 2.976.584zm0 3.34v2.064c-1.02.05-2.03.246-2.994.584a10.306 10.306 0 0 1-.493-2.647h3.487zm0 3.323v3.524c-1.022-.676-1.899-1.734-2.52-3.012a9.356 9.356 0 0 1 2.52-.512zm1.278 0c.86.052 1.707.224 2.52.512-.621 1.278-1.498 2.336-2.52 3.012V12.96zm0-1.26V9.64h3.505a11.149 11.149 0 0 1-.493 2.647 10.757 10.757 0 0 0-3.012-.584zm0-3.322V6.3c1.02-.05 2.03-.247 2.994-.585.274.821.456 1.716.511 2.665H9.639zm0-3.359V1.57c1.004.657 1.88 1.698 2.501 2.957a9.078 9.078 0 0 1-2.501.493zm2.209-3.194a7.77 7.77 0 0 1 2.464 1.57 7.85 7.85 0 0 1-1.004.638 9.475 9.475 0 0 0-1.46-2.208zM4.692 4.034c-.35-.187-.686-.4-1.004-.638a7.653 7.653 0 0 1 2.482-1.57 8.988 8.988 0 0 0-1.478 2.208zm-.475 1.169c-.347.986-.548 2.044-.62 3.176h-2.3a7.603 7.603 0 0 1 1.55-4.034c.42.328.877.602 1.37.858zm-.62 4.436c.055 1.075.258 2.138.602 3.158-.493.256-.95.53-1.37.858A7.734 7.734 0 0 1 1.297 9.64h2.3zm1.076 4.345c.402.803.877 1.551 1.443 2.19a7.688 7.688 0 0 1-2.447-1.57c.31-.237.64-.438 1.004-.62zm8.654 0c.365.182.693.383 1.004.62a7.688 7.688 0 0 1-2.447 1.57 9.487 9.487 0 0 0 1.443-2.19zm.492-1.187c.338-1.021.535-2.084.585-3.158h2.3a7.734 7.734 0 0 1-1.534 4.016 9.398 9.398 0 0 0-1.35-.858zm.585-4.418a11.811 11.811 0 0 0-.603-3.176c.493-.256.95-.53 1.37-.858a7.735 7.735 0 0 1 1.533 4.034h-2.3z"/>
</svg>
