<?xml version="1.0" encoding="utf-8"?>
<!-- Generator: Adobe Illustrator 21.1.0, SVG Export Plug-In . SVG Version: 6.00 Build 0)  -->
<svg version="1.1" id="Layer_1" xmlns="http://www.w3.org/2000/svg" xmlns:xlink="http://www.w3.org/1999/xlink" x="0px" y="0px"
	 viewBox="0 0 100 100" style="enable-background:new 0 0 100 100;" xml:space="preserve">
<style type="text/css">
	.st0{fill:#FE6E6E;}
</style>
<g id="Layer_2">
</g>
<g>
	<path class="st0" d="M26.3,9.1C33.5,4.9,41.4,2.8,50,2.8c8.6,0,16.5,2.1,23.7,6.3c7.2,4.2,13,10,17.2,17.2
		c4.2,7.2,6.3,15.1,6.3,23.7c0,8.6-2.1,16.5-6.3,23.7c-4.2,7.2-10,13-17.2,17.2c-7.2,4.2-15.1,6.3-23.7,6.3
		c-8.6,0-16.5-2.1-23.7-6.3c-7.2-4.2-13-10-17.2-17.2C4.9,66.5,2.7,58.6,2.7,50c0-8.6,2.1-16.5,6.3-23.7C13.3,19,19,13.3,26.3,9.1z
		 M57.8,58.3l1.1-38.2c0-0.5-0.2-0.9-0.6-1.1c-0.4-0.3-0.9-0.5-1.5-0.5H43.2c-0.6,0-1.1,0.2-1.5,0.5c-0.4,0.2-0.6,0.6-0.6,1.1
		l1,38.2c0,0.4,0.2,0.8,0.6,1.1c0.4,0.3,0.9,0.5,1.5,0.5h11.4c0.6,0,1.1-0.2,1.4-0.5C57.5,59.1,57.7,58.7,57.8,58.3z M57.9,79.5
		V67.8c0-0.6-0.2-1.1-0.6-1.4c-0.4-0.4-0.8-0.6-1.4-0.6H44.2c-0.5,0-1,0.2-1.4,0.6c-0.4,0.4-0.6,0.9-0.6,1.4v11.7
		c0,0.5,0.2,1,0.6,1.4c0.4,0.4,0.9,0.6,1.4,0.6H56c0.5,0,1-0.2,1.4-0.6C57.7,80.5,57.9,80,57.9,79.5z"/>
</g>
</svg>
