<svg xmlns="http://www.w3.org/2000/svg" width="161" height="28" viewBox="0 0 161 28">
    <path fill="#FFF" fill-rule="evenodd" d="M159.736 11.304c-.273.042-1.148.042-2.078.042h-2.845c-.22 0-.33 0-.274-.292.216-1.034.928-2.736 1.53-3.771.218-.247-.162-.332-.548-.121-.654.37-2.026 1.238-2.463 1.695-.326.373-.711.787-1.257 2.073-.109.374-.274.454-.548.5-.272.037-.655.122-1.15.205-.711.165-2.133.662-2.461.912-.439.331-.383.54.11.54h2.737c.548 0 .548.08.434.412a193.672 193.672 0 0 0-1.18 4.635c-.707.724-1.543 1.364-2.291 2.018a86.296 86.296 0 0 1-3.552 2.952c-.001 0-.003 0-.003.006l-.565.421c-1.243.828-2.946 1.652-4.174 1.652-2.023 0-3.229-1.2-3.174-4.434 0-.456.056-.828.056-1.116.053-.459.164-.5.381-.583 1.809-.58 3.833-1.244 5.692-2.154 1.59-.743 3.616-1.988 3.67-3.729 0-1.532-1.259-2.484-2.52-2.484-1.257 0-4.27 1.365-5.908 2.57-1.205.822-4.537 3.802-4.6 9.706 0 0-.098.299-1.228 1.385-.738.71-2.061 1.546-2.061 1.546-.06.012-.1.025-.16.031-.036 0-.071.003-.108.003-1.478 0-2.736-1.777-3.447-2.814-1.042-1.532-1.86-3.271-2.3-3.936a6.387 6.387 0 0 0-.713-1.117c-.218-.251-.218-.454.441-.786 1.312-.832 4.212-2.778 4.978-3.357.66-.538 1.48-1.284 1.48-1.946 0-.5-.275-1.326-1.207-1.326-.382 0-.656.083-1.148.371-.55.248-1.038.622-1.478.955-.329.247-.44.536-.384.951.055.416-.271 1.615-1.588 2.734a15.462 15.462 0 0 1-3.884 2.445c-.605.209-.659.122-.547-.453.93-4.146 3.065-14.669 3.502-16.078l-4.215.663c.713-.08.767.205.494 1.904-.71 4.022-2.627 13.511-3.83 17.983-.33 1.325-.768 2.943-1.205 4.807-.165.581-.165.908.215.908.332 0 1.7-.662 2.029-.866.382-.287.766-.666 1.038-1.412.436-1.281.823-2.857 1.043-3.812.163-.74.327-1.53.49-2.277.108-.54.166-.663.493-.62.545.08.984.456 1.698 2.028.763 1.577 1.807 3.563 2.625 4.803 1.151 1.617 2.3 2.156 3.337 2.156.83 0 1.97-.327 3.222-1.342a12.81 12.81 0 0 0 2.531-2.208c.336 1.807 1.423 3.303 3.553 3.303 2.419 0 6.382-2.341 8.352-4.104a92.179 92.179 0 0 0 3.215-2.68c.461-.401.941-.794 1.41-1.2-.343 1.49-.644 2.887-.826 3.929-.438 2.23-.273 4.138.878 4.138.927 0 4.213-2.358 6.514-4.806.16-.165-.167-.456-.443-.288-.766.579-2.517 1.903-3.283 1.903-.49 0-.546-.913-.22-3.021.275-1.78 1.04-5.594 1.863-8.039.107-.25.22-.33.494-.33.438 0 1.036-.044 1.532-.083.38 0 1.26-.17 1.804-.333 1.04-.33 1.914-.91 2.19-1.078.384-.21.275-.374-.165-.29m-23.315 6.09c.33-1.573 1.098-2.94 1.695-3.48.606-.622 1.642-1.283 2.521-1.283 1.37 0 1.968 1.037 1.916 1.986 0 .457-.33 1.037-.984 1.493-1.042.664-2.52 1.285-4.818 1.742-.383.083-.383-.126-.33-.457M21.753 1.12C20.908.43 19.117 0 17.003 0 14.61 0 11.97.633 9.435 2.338 6.759 4.096 5.701 6.071 5.741 8.414c.046 2.668 2.144 4.54 5.663 6.136 2.676 1.174 6.111 2.605 6.111 6.016 0 3.412-2.38 5.391-6.814 5.391-3.309 0-6.258-1.395-7.11-3.463-.267-.646-.492-1.28-.421-1.653.14-.319-.423-.374-.776 0-.28.373-1.056 1.221-1.617 1.865C.282 23.13 0 23.56 0 24.04c0 .801.635 1.705 1.69 2.4C2.959 27.341 5.62 28 8.297 28c2.53 0 4.946-.784 7.34-2.014 3.027-1.594 5.832-3.77 5.789-6.917-.046-3.315-3.73-5.577-6.405-6.799-3.098-1.387-5.885-2.962-5.885-5.997 0-2.827 2.412-4.499 5.227-4.457 3.671.05 5.35 1.438 4.928 3.355-.141.696.633.8 1.054.32.704-.744 1.058-1.063 1.622-1.65.421-.43.631-.797.631-1.171 0-.43-.21-1.015-.844-1.55m91.37 9.563c-.931 0-1.753.828-2.191 1.161-.93.866-2.68 2.566-4.54 5.258-.222.333-.437.333-.383 0 .383-1.988.712-3.518.821-4.64.108-.662.108-1.779-.712-1.779l-3.449 3.933c.822-.29.929.124.711 1.617a62.375 62.375 0 0 1-.308 1.846c-.012.011-.024.013-.035.024a526.871 526.871 0 0 1-6.16 5.078l-.007.012c-1.256.932-3.262 1.99-4.655 1.99-2.023 0-3.228-1.2-3.171-4.434 0-.456.054-.828.054-1.116.053-.459.162-.5.38-.583 1.807-.58 3.833-1.244 5.695-2.154 1.585-.743 3.61-1.988 3.665-3.729 0-1.532-1.256-2.484-2.512-2.484-1.265 0-4.274 1.365-5.917 2.57-.308.211-.752.558-1.242 1.066 0 0-.48.394-1.636.6-1.237.228-1.893-.055-2.2-.11-.565-.171-1.081-.543-1.093-.586.024-.107.076-.388.076-.388s.129-.68.129-1c.057-1.2-.711-2.152-1.804-2.152-1.26 0-2.025.993-2.19 1.573-.107.331.056.454.22.622.328.29.71.827.71 2.03 0 2.404-1.916 5.51-5.363 8.58-.493.494-.656.494-.656-.126 0-1.869-.055-4.144-.165-6.548-.164-3.11-.766-6.13-2.406-6.13l-1.973 2.733c.719 0 1.053 1.136 1.361 3.455-2.592 2.554-5.465 4.71-8.391 6.856-.439.235-.78.377-.96.377-.436 0-.383-1.326-.053-3.232 1.094-6.009 2.461-13.01 4.487-19.764l-4.434.747c.712.04 1.041.124.494 2.61-.339 1.565-.68 3.103-1.018 4.625-.191.332-1.338 1.839-1.338 1.839s-.932 1.048-1.528 1.557c-.869.738-1.678 1.11-1.84 1.196-.539.298-1.654.297-1.654.297a3.663 3.663 0 0 1-.314-.057c-.417-1.711-1.57-3.24-4.131-3.24-1.424 0-3.448.952-5.308 2.073-4.05 2.525-5.364 6.668-5.419 9.61 0 .257.026.674.05.912l-.462.547-.826.76a10.678 10.678 0 0 1-1.668 1.21c-.155.068-.293.11-.408.126-.044 0-.087.003-.133.003-1.476 0-2.737-1.777-3.447-2.814-1.04-1.532-1.862-3.271-2.299-3.936a6.77 6.77 0 0 0-.711-1.117c-.222-.251-.222-.454.435-.786 1.315-.832 4.217-2.778 4.983-3.357.656-.538 1.477-1.284 1.477-1.946 0-.5-.274-1.326-1.204-1.326-.383 0-.658.083-1.15.371-.547.248-1.04.622-1.476.955-.33.247-.438.536-.384.951.053.416-.275 1.615-1.588 2.734-1.262 1.078-2.627 1.904-3.885 2.445-.603.209-.656.122-.55-.453.933-4.146 3.066-14.669 3.503-16.078l-4.213.663c.71-.08.766.205.493 1.904-.71 4.022-2.627 13.511-3.831 17.983-.328 1.325-.768 2.943-1.204 4.807-.167.581-.167.908.22.908.328 0 1.696-.662 2.023-.866.383-.287.766-.666 1.04-1.412.437-1.281.82-2.857 1.041-3.812.163-.74.327-1.53.492-2.277.11-.54.164-.663.492-.62.549.08.986.456 1.698 2.028.765 1.577 1.806 3.563 2.626 4.803 1.15 1.617 2.299 2.156 3.34 2.156.782 0 1.848-.294 3.02-1.186a12.751 12.751 0 0 0 2.785-2.244c.6 2.027 2.13 3.183 4.153 3.183 1.315 0 3.56-.906 5.31-2.031 3.557-2.317 5.31-6.669 5.31-9.734a7.803 7.803 0 0 0-.024-.82c2.18.178 4.346-1.514 5.95-3.43-.88 3.964-1.742 7.829-2.533 11.746-.55 2.531-.22 4.352.546 4.352.417 0 2.507-1.329 4.796-3.41 2.691-1.98 5.336-3.968 7.75-6.281.287 3.018.086 6.775-.067 8.91 0 .406.057.781.492.781.274 0 .875-.452 1.534-1.033.547-.41 1.04-.915 1.806-1.745 3.65-3.859 6.602-7.158 7.805-9.776 1.197.783 2.53.95 4.057.709-1.091 1.606-2.092 3.96-2.122 7.165 0 2.322 1.04 4.597 3.666 4.597 2.335 0 6.104-2.18 8.133-3.914a582.483 582.483 0 0 0 5.222-4.313c-.423 2.18-.99 4.657-1.752 7.566-.164.581-.107.908.22.908.381 0 1.696-.662 2.026-.908.326-.245.766-.624.985-1.37.383-1.281.656-2.857.874-3.812a11.66 11.66 0 0 1 1.206-3.104c1.805-2.902 3.5-4.393 4.432-4.393.382 0 .655.124.82.29.166.125.385.373.655.373.276 0 .768-.374 1.479-1.203.55-.618 1.042-1.364 1.042-1.657.055-.372-.276-1.365-1.697-1.365m-23.645 6.71c.33-1.573 1.094-2.94 1.698-3.48.605-.622 1.643-1.283 2.518-1.283 1.367 0 1.972 1.037 1.919 1.986 0 .457-.334 1.037-.989 1.493-1.04.664-2.518 1.285-4.817 1.742-.383.083-.383-.126-.33-.457m-37.05-.707c0 2.446-.602 6.38-2.516 8.123-.603.586-1.587.95-2.353.95-1.862 0-3.34-1.198-3.34-4.512.056-3.898 1.259-6.549 2.574-7.75.766-.703 1.422-.994 2.41-.994 2.68 0 3.28 2.156 3.225 4.183"/>
</svg>
