<svg xmlns="http://www.w3.org/2000/svg" width="21" height="18" viewBox="0 0 21 18">
    <g fill="#999999" fill-rule="nonzero">
        <path d="M5.133 14H.7c-.387 0-.7-.298-.7-.667V5.111c0-.368.313-.667.7-.667h4.433c.387 0 .7.299.7.667v8.222c0 .369-.313.667-.7.667zM1.4 12.667h3.033v-6.89H1.4v6.89z"/>
        <path d="M10.967 18a.723.723 0 0 1-.43-.14l-5.833-4.304a.655.655 0 0 1-.27-.536V5.202a.655.655 0 0 1 .27-.535l5.833-4.32a.729.729 0 0 1 .745-.07.663.663 0 0 1 .385.612v16.444c0 .369-.314.667-.7.667zm-5.134-5.304l4.434 3.282V2.244L5.833 5.527v7.169zM14.07 17.842a.69.69 0 0 1-.696-.566.666.666 0 0 1 .488-.738c3.42-1.003 5.75-4.018 5.738-7.427-.013-3.436-2.38-6.462-5.833-7.458a.683.683 0 0 1-.494-.483.647.647 0 0 1 .202-.646.726.726 0 0 1 .69-.148C18.212 1.542 20.985 5.086 21 9.11c.016 3.994-2.714 7.528-6.722 8.702a.732.732 0 0 1-.208.03z"/>
        <path d="M13.972 14.782a.694.694 0 0 1-.683-.517.658.658 0 0 1 .377-.75c1.775-.815 2.903-2.526 2.903-4.403 0-1.877-1.128-3.588-2.903-4.403a.668.668 0 0 1-.392-.552.656.656 0 0 1 .305-.6.73.73 0 0 1 .699-.048c2.258 1.038 3.692 3.215 3.692 5.603s-1.434 4.565-3.692 5.604a.73.73 0 0 1-.306.066z"/>
        <path d="M13.909 11.518a.705.705 0 0 1-.617-.355.64.64 0 0 1 .038-.685 2.348 2.348 0 0 0 0-2.734.65.65 0 0 1 .192-.928.725.725 0 0 1 .975.182 3.63 3.63 0 0 1 0 4.222.71.71 0 0 1-.588.298z"/>
    </g>
</svg>
